<svg fill="none" xmlns="http://www.w3.org/2000/svg" viewBox="0 0 56 56"><path d="M0 28C0 12.536 12.536 0 28 0s28 12.536 28 28-12.536 28-28 28S0 43.464 0 28Z" fill="#274C5B"/><g clip-path="url(#a)" stroke="#fff" stroke-linecap="round" stroke-linejoin="round"><path d="M25.778 39a1.222 1.222 0 1 0 0-2.444 1.222 1.222 0 0 0 0 2.444ZM34.334 39a1.222 1.222 0 1 0 0-2.444 1.222 1.222 0 0 0 0 2.444Z" fill="#fff" stroke-width="1.5"/><path d="M16 17h3.782l2.836 16.073h15.128" stroke-width="2"/><path d="m22.111 29.184 15.247.107a.473.473 0 0 0 .464-.38l1.702-8.51a.472.472 0 0 0-.464-.565H20.567" stroke-width="2"/></g><defs><clipPath id="a"><path fill="#fff" d="M15 16h26v24H15z"/></clipPath></defs></svg>