<svg fill="none" xmlns="http://www.w3.org/2000/svg" viewBox="0 0 200 56"><g clip-path="url(#a)"><path d="M70.394 27.22v1.28c0 2.053-.278 3.896-.834 5.529-.557 1.633-1.343 3.024-2.357 4.175a10.215 10.215 0 0 1-3.637 2.616c-1.397.606-2.95.909-4.657.909-1.694 0-3.247-.303-4.657-.91a10.438 10.438 0 0 1-3.637-2.615c-1.026-1.15-1.824-2.542-2.393-4.175-.557-1.633-.835-3.476-.835-5.53v-1.28c0-2.066.278-3.909.835-5.53.556-1.632 1.342-3.023 2.356-4.174a10.333 10.333 0 0 1 3.637-2.635c1.41-.606 2.962-.909 4.657-.909 1.707 0 3.26.303 4.657.91a10.114 10.114 0 0 1 3.637 2.634c1.027 1.15 1.818 2.542 2.375 4.175.569 1.62.853 3.463.853 5.53Zm-5.622 1.28v-1.318c0-1.435-.13-2.697-.39-3.785-.259-1.089-.642-2.004-1.15-2.746-.507-.742-1.125-1.299-1.855-1.67-.73-.384-1.565-.575-2.505-.575s-1.775.192-2.505.575c-.717.371-1.33.928-1.837 1.67-.495.742-.872 1.657-1.132 2.746-.26 1.088-.39 2.35-.39 3.785V28.5c0 1.422.13 2.684.39 3.785.26 1.088.644 2.01 1.15 2.764.508.742 1.127 1.305 1.856 1.689.73.383 1.565.575 2.505.575s1.775-.192 2.505-.575c.73-.384 1.342-.947 1.837-1.689.495-.754.872-1.676 1.132-2.764.26-1.101.39-2.363.39-3.785Zm14.64-2.84v15.698h-5.344V21.282h5.029l.315 4.379Zm6.049-4.508-.093 4.954a12.84 12.84 0 0 0-.946-.093 9.624 9.624 0 0 0-.983-.056c-.755 0-1.41.1-1.967.297a3.508 3.508 0 0 0-1.373.835c-.36.371-.631.823-.817 1.355a6.654 6.654 0 0 0-.297 1.818l-1.076-.334c0-1.299.13-2.492.39-3.58.26-1.102.637-2.06 1.132-2.877.507-.816 1.125-1.447 1.855-1.892.73-.446 1.565-.668 2.505-.668.297 0 .6.024.91.074.308.037.562.093.76.167Zm14.862.13h4.843V40.69c0 1.83-.408 3.383-1.225 4.657-.804 1.287-1.929 2.258-3.377 2.913-1.447.668-3.13 1.002-5.046 1.002-.842 0-1.732-.111-2.672-.334a10.688 10.688 0 0 1-2.672-1.039 7.06 7.06 0 0 1-2.115-1.781l2.356-3.154a6.658 6.658 0 0 0 2.152 1.67c.817.408 1.72.612 2.71.612.964 0 1.78-.18 2.449-.538a3.561 3.561 0 0 0 1.54-1.54c.358-.668.538-1.479.538-2.43V25.92l.519-4.638ZM86.815 31.56v-.39c0-1.534.186-2.925.557-4.174.383-1.262.922-2.345 1.614-3.247a7.34 7.34 0 0 1 2.56-2.097c1.003-.495 2.135-.742 3.396-.742 1.336 0 2.456.247 3.359.742s1.645 1.2 2.226 2.115c.582.903 1.033 1.973 1.355 3.21a29.36 29.36 0 0 1 .779 4.026v.854a23.723 23.723 0 0 1-.835 3.896c-.371 1.2-.86 2.252-1.466 3.155a6.48 6.48 0 0 1-2.263 2.078c-.89.495-1.955.742-3.192.742s-2.356-.254-3.358-.76a7.502 7.502 0 0 1-2.542-2.135c-.705-.915-1.25-1.991-1.633-3.228-.371-1.237-.557-2.585-.557-4.045Zm5.344-.39v.39c0 .829.08 1.602.241 2.32.161.717.409 1.354.743 1.91.346.545.773.972 1.28 1.28.52.298 1.132.446 1.837.446.977 0 1.775-.204 2.393-.612.619-.42 1.083-.996 1.392-1.726.309-.73.489-1.57.538-2.523v-2.43c-.025-.78-.13-1.48-.315-2.098-.186-.63-.446-1.169-.78-1.614a3.366 3.366 0 0 0-1.299-1.039c-.531-.247-1.162-.371-1.892-.371-.705 0-1.317.16-1.837.482-.507.31-.934.736-1.28 1.28-.334.545-.588 1.188-.761 1.93a10.28 10.28 0 0 0-.26 2.375Zm27.999 5.66v-8.944c0-.643-.105-1.194-.315-1.651a2.35 2.35 0 0 0-.984-1.095c-.433-.26-.995-.39-1.688-.39-.594 0-1.107.106-1.54.316a2.229 2.229 0 0 0-1.002.872c-.235.371-.353.81-.353 1.317h-5.343c0-.853.198-1.663.593-2.43.396-.767.971-1.441 1.726-2.023.755-.594 1.651-1.057 2.69-1.391 1.052-.334 2.227-.501 3.526-.501 1.558 0 2.944.26 4.156.779 1.212.52 2.165 1.299 2.857 2.338.706 1.039 1.058 2.338 1.058 3.896v8.591c0 1.101.068 2.004.204 2.71.136.692.334 1.298.594 1.817v.316h-5.399c-.26-.544-.458-1.225-.594-2.041a16.781 16.781 0 0 1-.186-2.486Zm.705-7.7.037 3.024h-2.987c-.705 0-1.317.08-1.837.241-.519.16-.946.39-1.28.687a2.654 2.654 0 0 0-.742 1.002 3.455 3.455 0 0 0-.223 1.261c0 .458.105.872.315 1.243.211.36.514.644.91.854.395.198.859.297 1.391.297.804 0 1.503-.161 2.097-.483.594-.321 1.051-.717 1.373-1.187.334-.47.507-.916.52-1.336l1.41 2.264a9.134 9.134 0 0 1-.817 1.577 7.349 7.349 0 0 1-1.28 1.54c-.52.47-1.144.86-1.874 1.169-.73.297-1.596.445-2.598.445-1.274 0-2.43-.254-3.469-.76-1.027-.52-1.844-1.232-2.45-2.135-.593-.915-.89-1.954-.89-3.117 0-1.051.198-1.985.593-2.801a5.47 5.47 0 0 1 1.745-2.06c.779-.57 1.75-.996 2.913-1.28 1.162-.297 2.511-.446 4.045-.446h3.098Zm14.028-3.563v15.79h-5.344V21.282h5.01l.334 4.286Zm-.78 5.047h-1.447c0-1.485.192-2.82.575-4.008.384-1.2.922-2.22 1.615-3.062a6.93 6.93 0 0 1 2.467-1.948c.965-.457 2.041-.686 3.229-.686.94 0 1.8.136 2.579.408a4.94 4.94 0 0 1 2.004 1.299c.569.593 1.002 1.379 1.299 2.356.309.977.464 2.171.464 3.581v12.803h-5.381V28.537c0-.891-.124-1.584-.371-2.078-.248-.495-.613-.842-1.095-1.04-.47-.21-1.052-.315-1.744-.315-.718 0-1.342.142-1.874.427-.52.284-.953.68-1.299 1.187a5.6 5.6 0 0 0-.761 1.744 8.56 8.56 0 0 0-.26 2.153Zm22.489-9.333v20.076h-5.363V21.282h5.363Zm-5.697-5.233c0-.779.272-1.422.817-1.93.544-.506 1.274-.76 2.189-.76.903 0 1.627.254 2.171.76.557.508.835 1.151.835 1.93 0 .78-.278 1.423-.835 1.93-.544.507-1.268.76-2.171.76-.915 0-1.645-.253-2.189-.76-.545-.507-.817-1.15-.817-1.93Zm18.407 21.505c.655 0 1.237-.123 1.744-.37.507-.26.903-.62 1.187-1.077.297-.47.452-1.02.464-1.651h5.028c-.012 1.41-.389 2.665-1.131 3.766-.743 1.089-1.738 1.948-2.988 2.58-1.249.618-2.647.927-4.193.927-1.559 0-2.919-.26-4.082-.78-1.151-.519-2.109-1.236-2.876-2.152-.767-.927-1.342-2.003-1.726-3.228-.383-1.237-.575-2.56-.575-3.97v-.539c0-1.422.192-2.746.575-3.97.384-1.238.959-2.314 1.726-3.23a7.873 7.873 0 0 1 2.876-2.17c1.15-.52 2.499-.78 4.045-.78 1.645 0 3.086.316 4.323.947a7.052 7.052 0 0 1 2.932 2.709c.717 1.163 1.082 2.542 1.094 4.138h-5.028a4.182 4.182 0 0 0-.427-1.819 3.072 3.072 0 0 0-1.15-1.299c-.495-.334-1.107-.5-1.837-.5-.779 0-1.416.166-1.911.5a3.205 3.205 0 0 0-1.151 1.336 6.679 6.679 0 0 0-.575 1.912 16.017 16.017 0 0 0-.148 2.226v.538c0 .78.049 1.528.148 2.245.099.718.285 1.355.557 1.911.284.557.674.996 1.169 1.318.495.321 1.138.482 1.93.482Zm16.866-24.715v28.519h-5.344V12.839h5.344Zm12.654 8.443-8.721 9.945-4.675 4.732-1.949-3.86 3.711-4.713 5.214-6.104h6.42Zm-5.548 20.076-5.937-9.277 3.692-3.229 8.405 12.506h-6.16Z" fill="#274C5B"/><path d="M1.85 41.926h34.881M5.791 48.358h27M18.791 1.358v14M18.866 14.642v26.432M29.925 4.41l-11.06 11.085M34.179 8.674 18.866 24.02M36.731 15.495 18.866 32.547M37.582 23.169 18.866 41.925M37.582 31.695 27.373 41.926M1 31.695l10.209 10.231M8.657 4.41l10.209 11.085M4.403 8.674 18.866 24.02M1.85 14.642l17.016 17.905M1 22.316l17.866 18.758M19.291 54.716C9.191 54.716 1 46.263 1 35.836V19.88C1 9.454 9.19 1 19.291 1c10.103 0 18.291 8.454 18.291 18.88v15.955c.002 10.428-8.188 18.88-18.291 18.88Z" stroke="#7EB693" stroke-width="2" stroke-miterlimit="10"/></g><defs><clipPath id="a"><path fill="#fff" d="M0 0h200v56H0z"/></clipPath></defs></svg>